.


[color=green]Movies : Comedy : DVD :Arabic[/color]





[img]http://img32.imageshack.us/img32/3800/coverobg.jpg[/img]





[img]http://img219.imageshack.us/img219/462/imdbt.png[/img]
[color=red]elcinema:[/color] 
http://www.elcinema.com/work/wk1004863/
[color=green]Genre:[/color]Comedy
[color=green]Source:[/color]DVD Disc
[color=green]Language:[/color]Arabic
[color=green]File size:[/color]1.47 GiB
[color=green]Overall bit rate:[/color]1984 Kbps
[color=green]Duration:[/color]1h 46mn 2s 
[color=green]Encoded / Released By[/color]:alrmothe



[img]http://i.imgur.com/fXeWi.png[/img]

[color=red]Video Information[/color]
Format :MP4
Format : AVC
Format profile:High@L3.0
Video Bit rate:1820 Kbps
Frame Rate: 25 fps
Bit depth : 8 bits
Scan type : Progressive
Bits/(Pixel*Frame):0.239
Stream size:1.35 GiB(93%)
[color=green]Resolution:718x424[/color]


[color=navy]Audio Information:[/color]
Format : ACC
Bit rate mode : Constant
Bit rate : 160 Kbps
Channel(s) : 2 channels
Channel positions:Front: L R
Sampling rate : 48.0 KHz
Bit depth : 16 bits
Compression mode : Lossy
Stream size:121 MiB(8%)
[color=red]Language:[/color]Arabic



[color=green]SUB:[/color]NO

╪º┘ä┘à╪╡╪»╪▒ ┘é╪▒╪╡ ╪º┘ä╪»┘è ┘ü┘è ╪»┘è 

[img]http://img541.imageshack.us/img541/9099/vlcsnap2012121300h22m04.png[/img]


┘ê╪º╪░╪º ╪╕┘ç╪▒╪¬ ╪¿╪╣╪╢ ╪º┘ä╪«╪╖┘ê╪╖ ┘ê╪¬╪«╪¬┘ü┘è ┘ä┘è╪│ ╪╣┘è╪¿ ╪¿╪º┘ä╪╢╪║╪╖ ╪º┘å┘à╪º ┘à┘å ╪º┘ä┘é╪▒╪╡ ╪º┘ä╪º╪╡┘ä┘è ┘ä┘ä┘ü┘è┘ä┘à

[img]http://img850.imageshack.us/img850/7939/vlcsnap2012121300h20m38.png[/img]


┘é╪¿┘ä ╪º┘ä╪╢╪║╪╖

[img]http://img543.imageshack.us/img543/6383/vlcsnap2012121300h19m46.png[/img]



╪¿╪╣╪» ╪º┘ä╪╢╪║╪╖ ┘ê┘é╪╡ ╪º┘ä╪¡╪»┘ê╪» ╪º┘ä╪│┘ê╪»╪º╪í ╪º┘ä╪▓╪º╪ª╪»╪⌐
[img]http://img33.imageshack.us/img33/7310/vlcsnap2012121301h06m36.png[/img]






[color=red]Screenshots[/color]


[img]http://img849.imageshack.us/img849/5094/asadand4catsdvdripalrmo.png[/img]




[code] 
http://exodus.desync.com/announce 
http://121.14.98.151:9090/announce 
http://tracker.ex.ua/announce 
http://tracker.torrentbay.to:6969/announce 
http://exodus.desync.com:6969/announce 
http://94.228.192.98/announce
udp://tracker.istole.it:80/announce
[/code]






You can play movie on PlayStation 3 Media Server












Trailer












.